<svg width="382" height="554" fill="none" xmlns="http://www.w3.org/2000/svg"><g filter="url(#Vector__a)"><path fill-rule="evenodd" clip-rule="evenodd" d="M328.793 30.247c68.582-11.933 143.65-51.55 203.139-15.328 59.564 36.268 64.517 119.877 80.298 187.911 14.426 62.191 25.834 125.871 6.606 186.743-19.323 61.177-54.94 122.653-112.928 149.863-54.974 25.796-116.416-14.288-177.115-13.765-61.547.531-127.53 50.134-179.343 16.839-51.598-33.155-35.235-113.13-58.773-169.846-26.682-64.29-106.292-116.557-87.966-183.72 18.184-66.637 106.445-81.071 168.454-111.25 50.588-24.62 102.219-37.805 157.628-47.447Z" fill="#7128A4" fill-opacity=".1"/></g><defs><filter id="Vector__a" x="0" y="0" width="631" height="572" filterUnits="userSpaceOnUse" color-interpolation-filters="sRGB"><feFlood flood-opacity="0" result="BackgroundImageFix"/><feBlend in="SourceGraphic" in2="BackgroundImageFix" result="shape"/><feColorMatrix in="SourceAlpha" values="0 0 0 0 0 0 0 0 0 0 0 0 0 0 0 0 0 0 127 0" result="hardAlpha"/><feOffset dx="2" dy="18"/><feGaussianBlur stdDeviation="30.5"/><feComposite in2="hardAlpha" operator="arithmetic" k2="-1" k3="1"/><feColorMatrix values="0 0 0 0 0 0 0 0 0 0 0 0 0 0 0 0 0 0 0.25 0"/><feBlend in2="shape" result="effect1_innerShadow_314_660"/></filter></defs></svg>