<svg width="371" height="608" viewBox="0 0 371 608" fill="none" xmlns="http://www.w3.org/2000/svg">
<g filter="url(#filter0_i)">
<path fill-rule="evenodd" clip-rule="evenodd" d="M331.923 28.3202C394.993 18.5612 464.695 -20.6944 518.161 14.1545C571.487 48.9125 556.787 130.604 579.863 189.927C605.018 254.595 679.553 310.492 659.24 376.84C638.973 443.035 545.639 446.878 489.005 486.692C433.706 525.566 399.408 603.072 331.923 606.941C264.172 610.826 213.991 548.114 161.187 505.487C111.339 465.246 60.2794 425.803 34.7532 367.045C7.41175 304.107 -16.1075 228.807 14.2583 167.272C44.0614 106.878 121.625 92.9545 183.328 65.9645C231.316 44.9737 280.161 36.3296 331.923 28.3202Z" fill="#A17BBE"/>
</g>
<defs>
<filter id="filter0_i" x="0" y="0" width="664.706" height="625.113" filterUnits="userSpaceOnUse" color-interpolation-filters="sRGB">
<feFlood flood-opacity="0" result="BackgroundImageFix"/>
<feBlend mode="normal" in="SourceGraphic" in2="BackgroundImageFix" result="shape"/>
<feColorMatrix in="SourceAlpha" type="matrix" values="0 0 0 0 0 0 0 0 0 0 0 0 0 0 0 0 0 0 127 0" result="hardAlpha"/>
<feOffset dx="2" dy="18"/>
<feGaussianBlur stdDeviation="30.5"/>
<feComposite in2="hardAlpha" operator="arithmetic" k2="-1" k3="1"/>
<feColorMatrix type="matrix" values="0 0 0 0 0 0 0 0 0 0 0 0 0 0 0 0 0 0 0.25 0"/>
<feBlend mode="normal" in2="shape" result="effect1_innerShadow"/>
</filter>
</defs>
</svg>
